<svg viewBox="0 0 1600 400" xmlns="http://www.w3.org/2000/svg" preserveAspectRatio="xMidYMax slice" shape-rendering="crispEdges">

<!-- BACK ROW -->

<g fill="#48494b" fill-opacity="0.35" transform="rotate(-3 95 260)">
<rect x="80" y="230" width="50" height="70"/>
<rect x="78" y="232" width="2" height="66"/>
<rect x="130" y="232" width="2" height="66"/>
<rect x="80" y="228" width="50" height="2"/>
</g>
<g fill="#48494b" fill-opacity="0.15" transform="rotate(-3 95 260)">
<rect x="90" y="250" width="3" height="3"/><rect x="110" y="270" width="3" height="3"/>
<rect x="120" y="285" width="3" height="3"/>
</g>

<g fill="#48494b" fill-opacity="0.4">
<rect x="170" y="245" width="8" height="60"/>
<rect x="158" y="260" width="32" height="6"/>
</g>

<g fill="#48494b" fill-opacity="0.38">
<rect x="220" y="240" width="55" height="60"/>
<rect x="218" y="242" width="2" height="58"/>
<rect x="275" y="242" width="2" height="58"/>
<rect x="220" y="236" width="10" height="4"/>
<rect x="232" y="232" width="14" height="4"/>
<rect x="248" y="234" width="12" height="2"/>
<rect x="262" y="238" width="13" height="2"/>
</g>
<g fill="#48494b" fill-opacity="0.15">
<rect x="232" y="252" width="3" height="3"/><rect x="252" y="270" width="3" height="3"/>
<rect x="240" y="284" width="3" height="3"/>
</g>

<g fill="#48494b" fill-opacity="0.4">
<rect x="320" y="225" width="60" height="80"/>
<rect x="318" y="227" width="2" height="78"/>
<rect x="380" y="227" width="2" height="78"/>
<rect x="326" y="217" width="48" height="8"/>
<rect x="334" y="209" width="32" height="8"/>
<rect x="342" y="201" width="16" height="8"/>
</g>
<g fill="#48494b" fill-opacity="0.15">
<rect x="332" y="240" width="3" height="3"/><rect x="356" y="258" width="3" height="3"/>
<rect x="368" y="278" width="3" height="3"/><rect x="340" y="290" width="3" height="3"/>
</g>

<g fill="#48494b" fill-opacity="0.42">
<rect x="430" y="190" width="28" height="115"/>
<rect x="428" y="192" width="2" height="113"/>
<rect x="458" y="192" width="2" height="113"/>
<rect x="434" y="184" width="20" height="6"/>
<rect x="438" y="178" width="12" height="6"/>
<rect x="442" y="172" width="4" height="6"/>
</g>

<g fill="#48494b" fill-opacity="0.4">
<rect x="510" y="235" width="8" height="65"/>
<rect x="498" y="250" width="32" height="6"/>
<rect x="498" y="298" width="32" height="6"/>
</g>

<g fill="#48494b" fill-opacity="0.38">
<rect x="580" y="240" width="50" height="65"/>
<rect x="578" y="242" width="2" height="63"/>
<rect x="630" y="242" width="2" height="63"/>
<rect x="585" y="232" width="40" height="8"/>
<rect x="590" y="226" width="30" height="6"/>
<rect x="598" y="222" width="14" height="4"/>
</g>

<g fill="#48494b" fill-opacity="0.4" transform="rotate(4 705 245)">
<rect x="680" y="210" width="50" height="95"/>
<rect x="678" y="212" width="2" height="93"/>
<rect x="730" y="212" width="2" height="93"/>
<rect x="680" y="208" width="50" height="2"/>
</g>
<g fill="#48494b" fill-opacity="0.15" transform="rotate(4 705 245)">
<rect x="690" y="225" width="3" height="3"/><rect x="710" y="255" width="3" height="3"/>
<rect x="720" y="275" width="3" height="3"/>
</g>

<g fill="#48494b" fill-opacity="0.4">
<rect x="780" y="220" width="60" height="85"/>
<rect x="778" y="222" width="2" height="83"/>
<rect x="840" y="222" width="2" height="83"/>
<rect x="786" y="212" width="48" height="8"/>
<rect x="794" y="204" width="32" height="8"/>
<rect x="802" y="196" width="16" height="8"/>
</g>
<g fill="#48494b" fill-opacity="0.15">
<rect x="792" y="232" width="3" height="3"/><rect x="816" y="250" width="3" height="3"/>
<rect x="828" y="270" width="3" height="3"/><rect x="800" y="282" width="3" height="3"/>
</g>

<g fill="#48494b" fill-opacity="0.35">
<rect x="890" y="270" width="45" height="35"/>
<rect x="888" y="272" width="2" height="33"/>
<rect x="935" y="272" width="2" height="33"/>
<rect x="890" y="266" width="8" height="4"/>
<rect x="900" y="262" width="12" height="4"/>
<rect x="914" y="265" width="10" height="2"/>
<rect x="926" y="268" width="9" height="2"/>
</g>

<g fill="#48494b" fill-opacity="0.4">
<rect x="985" y="230" width="8" height="70"/>
<rect x="973" y="246" width="32" height="6"/>
</g>

<g fill="#48494b" fill-opacity="0.42">
<rect x="1050" y="200" width="60" height="105"/>
<rect x="1048" y="202" width="2" height="103"/>
<rect x="1110" y="202" width="2" height="103"/>
<rect x="1056" y="192" width="48" height="8"/>
<rect x="1064" y="184" width="32" height="8"/>
<rect x="1072" y="176" width="16" height="8"/>
</g>
<g fill="#48494b" fill-opacity="0.15">
<rect x="1062" y="215" width="3" height="3"/><rect x="1086" y="235" width="3" height="3"/>
<rect x="1098" y="255" width="3" height="3"/><rect x="1070" y="275" width="3" height="3"/>
<rect x="1090" y="290" width="3" height="3"/>
</g>

<g fill="#48494b" fill-opacity="0.38" transform="rotate(-5 1175 265)">
<rect x="1160" y="240" width="45" height="65"/>
<rect x="1158" y="242" width="2" height="63"/>
<rect x="1205" y="242" width="2" height="63"/>
<rect x="1160" y="238" width="45" height="2"/>
</g>

<g fill="#48494b" fill-opacity="0.42">
<rect x="1248" y="218" width="10" height="85"/>
<rect x="1232" y="238" width="42" height="8"/>
<rect x="1232" y="298" width="42" height="8"/>
</g>

<g fill="#48494b" fill-opacity="0.4">
<rect x="1320" y="225" width="55" height="80"/>
<rect x="1318" y="227" width="2" height="78"/>
<rect x="1375" y="227" width="2" height="78"/>
<rect x="1320" y="222" width="55" height="3"/>
</g>
<g fill="#48494b" fill-opacity="0.15">
<rect x="1330" y="240" width="3" height="3"/><rect x="1350" y="260" width="3" height="3"/>
<rect x="1362" y="280" width="3" height="3"/><rect x="1338" y="290" width="3" height="3"/>
</g>

<g fill="#48494b" fill-opacity="0.4">
<rect x="1420" y="220" width="25" height="85"/>
<rect x="1418" y="222" width="2" height="83"/>
<rect x="1445" y="222" width="2" height="83"/>
<rect x="1420" y="216" width="8" height="4"/>
<rect x="1430" y="212" width="10" height="4"/>
<rect x="1440" y="218" width="5" height="2"/>
</g>

<g fill="#48494b" fill-opacity="0.38">
<rect x="1490" y="240" width="50" height="65"/>
<rect x="1488" y="242" width="2" height="63"/>
<rect x="1540" y="242" width="2" height="63"/>
<rect x="1495" y="232" width="40" height="8"/>
<rect x="1503" y="224" width="24" height="8"/>
<rect x="1511" y="218" width="8" height="6"/>
</g>

<g fill="#48494b" fill-opacity="0.36">
<rect x="1574" y="250" width="6" height="55"/>
<rect x="1564" y="263" width="26" height="5"/>
</g>

<!-- FRONT ROW -->

<g fill="#48494b" fill-opacity="0.7">
<rect x="50" y="180" width="110" height="155"/>
<rect x="46" y="184" width="4" height="151"/>
<rect x="160" y="184" width="4" height="151"/>
<rect x="62" y="168" width="86" height="12"/>
<rect x="74" y="156" width="62" height="12"/>
<rect x="86" y="144" width="38" height="12"/>
<rect x="98" y="132" width="14" height="12"/>
</g>
<g fill="none" stroke="#48494b" stroke-opacity="0.3" stroke-width="2">
<path d="M 60 192 L 60 325 L 150 325 L 150 192" />
</g>
<g fill="#48494b" fill-opacity="0.25">
<rect x="68" y="200" width="4" height="4"/><rect x="92" y="220" width="4" height="4"/>
<rect x="120" y="240" width="4" height="4"/><rect x="142" y="260" width="4" height="4"/>
<rect x="80" y="280" width="4" height="4"/><rect x="108" y="300" width="4" height="4"/>
<rect x="132" y="200" width="4" height="4"/><rect x="100" y="180" width="4" height="4"/>
</g>
<rect x="36" y="332" width="138" height="12" fill="#48494b" fill-opacity="0.75"/>
<rect x="42" y="324" width="126" height="8" fill="#48494b" fill-opacity="0.7"/>

<g fill="#48494b" fill-opacity="0.65">
<rect x="240" y="200" width="20" height="135"/>
<rect x="206" y="230" width="88" height="16"/>
<rect x="216" y="328" width="68" height="10"/>
<rect x="206" y="335" width="88" height="6"/>
</g>

<g fill="#48494b" fill-opacity="0.7">
<rect x="350" y="200" width="100" height="135"/>
<rect x="346" y="204" width="4" height="131"/>
<rect x="450" y="204" width="4" height="131"/>
<rect x="350" y="196" width="100" height="4"/>
<rect x="430" y="192" width="20" height="4" fill="#e3e5e4"/>
<rect x="435" y="188" width="15" height="4" fill="#e3e5e4"/>
<rect x="440" y="184" width="10" height="4" fill="#e3e5e4"/>
</g>
<g fill="#48494b" fill-opacity="0.25">
<rect x="362" y="220" width="4" height="4"/><rect x="386" y="240" width="4" height="4"/>
<rect x="412" y="260" width="4" height="4"/><rect x="434" y="280" width="4" height="4"/>
<rect x="372" y="300" width="4" height="4"/><rect x="400" y="220" width="4" height="4"/>
<rect x="424" y="218" width="4" height="4"/>
</g>
<rect x="338" y="332" width="124" height="10" fill="#48494b" fill-opacity="0.7"/>

<g fill="#48494b" fill-opacity="0.62" transform="rotate(-4 580 270)">
<rect x="540" y="220" width="80" height="115"/>
<rect x="536" y="224" width="4" height="111"/>
<rect x="620" y="224" width="4" height="111"/>
<rect x="552" y="208" width="56" height="12"/>
<rect x="562" y="196" width="36" height="12"/>
<rect x="574" y="184" width="12" height="12"/>
</g>
<g fill="#48494b" fill-opacity="0.22" transform="rotate(-4 580 270)">
<rect x="552" y="240" width="4" height="4"/><rect x="580" y="260" width="4" height="4"/>
<rect x="604" y="280" width="4" height="4"/><rect x="568" y="300" width="4" height="4"/>
<rect x="596" y="220" width="4" height="4"/>
</g>

<g fill="#48494b" fill-opacity="0.68">
<rect x="700" y="170" width="40" height="165"/>
<rect x="696" y="174" width="4" height="161"/>
<rect x="740" y="174" width="4" height="161"/>
<rect x="708" y="160" width="24" height="10"/>
<rect x="714" y="148" width="12" height="12"/>
<rect x="718" y="138" width="4" height="10"/>
</g>
<rect x="688" y="332" width="64" height="10" fill="#48494b" fill-opacity="0.7"/>

<g fill="#48494b" fill-opacity="0.66">
<rect x="800" y="278" width="65" height="57"/>
<rect x="796" y="282" width="4" height="53"/>
<rect x="865" y="282" width="4" height="53"/>
<rect x="800" y="270" width="12" height="8"/>
<rect x="816" y="264" width="14" height="14"/>
<rect x="834" y="268" width="16" height="10"/>
<rect x="854" y="274" width="11" height="4"/>
</g>
<g fill="#48494b" fill-opacity="0.25">
<rect x="812" y="295" width="4" height="4"/><rect x="836" y="310" width="4" height="4"/>
<rect x="852" y="290" width="4" height="4"/>
</g>
<rect x="788" y="332" width="89" height="10" fill="#48494b" fill-opacity="0.7"/>

<g fill="#48494b" fill-opacity="0.66">
<rect x="940" y="190" width="14" height="145"/>
<rect x="912" y="216" width="70" height="10"/>
<rect x="920" y="246" width="54" height="8"/>
<rect x="922" y="328" width="50" height="10"/>
</g>

<g fill="#48494b" fill-opacity="0.68" transform="rotate(3 1075 270)">
<rect x="1030" y="210" width="90" height="125"/>
<rect x="1026" y="214" width="4" height="121"/>
<rect x="1120" y="214" width="4" height="121"/>
<rect x="1030" y="204" width="90" height="6"/>
</g>
<g fill="#48494b" fill-opacity="0.25" transform="rotate(3 1075 270)">
<rect x="1042" y="230" width="4" height="4"/><rect x="1068" y="250" width="4" height="4"/>
<rect x="1092" y="270" width="4" height="4"/><rect x="1054" y="290" width="4" height="4"/>
<rect x="1100" y="220" width="4" height="4"/><rect x="1080" y="310" width="4" height="4"/>
</g>

<g fill="#48494b" fill-opacity="0.7">
<rect x="1180" y="195" width="105" height="140"/>
<rect x="1176" y="199" width="4" height="136"/>
<rect x="1285" y="199" width="4" height="136"/>
<rect x="1188" y="183" width="92" height="12"/>
<rect x="1196" y="171" width="76" height="12"/>
<rect x="1204" y="159" width="56" height="12"/>
<rect x="1216" y="147" width="32" height="12"/>
<rect x="1224" y="139" width="14" height="8"/>
</g>
<g fill="#48494b" fill-opacity="0.25">
<rect x="1192" y="215" width="4" height="4"/><rect x="1218" y="235" width="4" height="4"/>
<rect x="1246" y="255" width="4" height="4"/><rect x="1268" y="275" width="4" height="4"/>
<rect x="1206" y="295" width="4" height="4"/><rect x="1234" y="305" width="4" height="4"/>
<rect x="1258" y="215" width="4" height="4"/>
</g>
<rect x="1166" y="332" width="133" height="10" fill="#48494b" fill-opacity="0.75"/>

<g fill="#48494b" fill-opacity="0.62" transform="rotate(-6 1350 270)">
<rect x="1342" y="225" width="10" height="110"/>
<rect x="1322" y="244" width="50" height="10"/>
</g>

<g fill="#48494b" fill-opacity="0.68">
<rect x="1410" y="210" width="80" height="125"/>
<rect x="1406" y="214" width="4" height="121"/>
<rect x="1490" y="214" width="4" height="121"/>
<rect x="1410" y="206" width="80" height="4"/>
</g>
<g fill="#48494b" fill-opacity="0.25">
<rect x="1422" y="230" width="4" height="4"/><rect x="1448" y="250" width="4" height="4"/>
<rect x="1472" y="270" width="4" height="4"/><rect x="1434" y="290" width="4" height="4"/>
<rect x="1460" y="310" width="4" height="4"/>
</g>
<rect x="1398" y="332" width="104" height="10" fill="#48494b" fill-opacity="0.7"/>

<g fill="#48494b" fill-opacity="0.66">
<rect x="1530" y="225" width="65" height="110"/>
<rect x="1526" y="229" width="4" height="106"/>
<rect x="1595" y="229" width="4" height="106"/>
<rect x="1538" y="215" width="49" height="10"/>
<rect x="1548" y="205" width="29" height="10"/>
<rect x="1558" y="197" width="9" height="8"/>
</g>
<g fill="#48494b" fill-opacity="0.25">
<rect x="1540" y="245" width="4" height="4"/><rect x="1562" y="265" width="4" height="4"/>
<rect x="1582" y="285" width="4" height="4"/><rect x="1554" y="305" width="4" height="4"/>
</g>

<!-- GROUND -->
<rect x="0" y="354" width="1600" height="2" fill="#48494b" fill-opacity="0.5"/>

<g fill="#48494b" fill-opacity="0.55">
<rect x="28" y="346" width="3" height="10"/><rect x="34" y="340" width="3" height="16"/>
<rect x="180" y="344" width="3" height="12"/><rect x="186" y="338" width="3" height="18"/><rect x="192" y="346" width="3" height="10"/>
<rect x="298" y="346" width="3" height="10"/><rect x="304" y="340" width="3" height="16"/>
<rect x="470" y="344" width="3" height="12"/><rect x="476" y="340" width="3" height="14"/>
<rect x="635" y="346" width="3" height="10"/><rect x="641" y="338" width="3" height="18"/><rect x="647" y="346" width="3" height="10"/>
<rect x="760" y="344" width="3" height="12"/><rect x="766" y="340" width="3" height="16"/>
<rect x="890" y="346" width="3" height="10"/><rect x="896" y="342" width="3" height="14"/>
<rect x="1000" y="344" width="3" height="12"/><rect x="1006" y="338" width="3" height="18"/>
<rect x="1148" y="346" width="3" height="10"/><rect x="1154" y="340" width="3" height="16"/><rect x="1160" y="344" width="3" height="12"/>
<rect x="1316" y="346" width="3" height="10"/><rect x="1322" y="342" width="3" height="14"/>
<rect x="1510" y="346" width="3" height="10"/><rect x="1516" y="340" width="3" height="16"/>
</g>

<g fill="#48494b" fill-opacity="0.3">
<rect x="120" y="368" width="3" height="2"/><rect x="250" y="372" width="2" height="2"/>
<rect x="380" y="370" width="3" height="2"/><rect x="510" y="374" width="2" height="2"/>
<rect x="660" y="368" width="3" height="2"/><rect x="820" y="372" width="2" height="2"/>
<rect x="980" y="370" width="3" height="2"/><rect x="1130" y="374" width="2" height="2"/>
<rect x="1290" y="368" width="3" height="2"/><rect x="1450" y="372" width="2" height="2"/>
<rect x="1560" y="370" width="3" height="2"/>
</g>

<g fill="#48494b" fill-opacity="0.18">
<rect x="65" y="385" width="2" height="2"/><rect x="200" y="388" width="2" height="2"/>
<rect x="340" y="384" width="2" height="2"/><rect x="480" y="388" width="2" height="2"/>
<rect x="620" y="384" width="2" height="2"/><rect x="780" y="388" width="2" height="2"/>
<rect x="940" y="386" width="2" height="2"/><rect x="1100" y="384" width="2" height="2"/>
<rect x="1260" y="388" width="2" height="2"/><rect x="1420" y="385" width="2" height="2"/>
</g>

</svg>
